<svg width="24" height="24" viewBox="0 0 24 24" fill="none" xmlns="http://www.w3.org/2000/svg">
<path d="M17.525 10.625C17.7583 10.475 17.875 10.2667 17.875 10C17.875 9.73333 17.7583 9.525 17.525 9.375L12.65 6.25C12.4 6.08333 12.1457 6.07067 11.887 6.212C11.6283 6.35333 11.4993 6.57433 11.5 6.875V13.125C11.5 13.425 11.6293 13.646 11.888 13.788C12.1467 13.93 12.4007 13.9173 12.65 13.75L17.525 10.625ZM8 18C7.45 18 6.97933 17.8043 6.588 17.413C6.19667 17.0217 6.00067 16.5507 6 16V4C6 3.45 6.196 2.97933 6.588 2.588C6.98 2.19667 7.45067 2.00067 8 2H20C20.55 2 21.021 2.196 21.413 2.588C21.805 2.98 22.0007 3.45067 22 4V16C22 16.55 21.8043 17.021 21.413 17.413C21.0217 17.805 20.5507 18.0007 20 18H8ZM4 22C3.45 22 2.97933 21.8043 2.588 21.413C2.19667 21.0217 2.00067 20.5507 2 20V7C2 6.71667 2.096 6.47933 2.288 6.288C2.48 6.09667 2.71733 6.00067 3 6C3.28267 5.99933 3.52033 6.09533 3.713 6.288C3.90567 6.48067 4.00133 6.718 4 7V20H17C17.2833 20 17.521 20.096 17.713 20.288C17.905 20.48 18.0007 20.7173 18 21C17.9993 21.2827 17.9033 21.5203 17.712 21.713C17.5207 21.9057 17.2833 22.0013 17 22H4Z" fill="#2871FF"/>
</svg>
