<svg width="18" height="18" viewBox="0 0 28 28" fill="none" xmlns="http://www.w3.org/2000/svg">
<path d="M11.6666 21.0002C12.6388 21.0002 13.4652 20.6599 14.1458 19.9793C14.8263 19.2988 15.1666 18.4724 15.1666 17.5002V9.3335H18.6666V7.00016H13.4166V14.4668C13.1444 14.3113 12.8624 14.1946 12.5708 14.1168C12.2791 14.0391 11.9777 14.0002 11.6666 14.0002C10.6944 14.0002 9.86798 14.3404 9.18742 15.021C8.50686 15.7016 8.16659 16.5279 8.16659 17.5002C8.16659 18.4724 8.50686 19.2988 9.18742 19.9793C9.86798 20.6599 10.6944 21.0002 11.6666 21.0002ZM13.9999 25.6668C12.386 25.6668 10.8694 25.3604 9.44992 24.7475C8.03048 24.1346 6.79575 23.3036 5.74575 22.2543C4.69575 21.2051 3.8647 19.9704 3.25259 18.5502C2.64048 17.1299 2.33403 15.6133 2.33325 14.0002C2.33248 12.3871 2.63892 10.8704 3.25259 9.45016C3.86625 8.02994 4.69731 6.79522 5.74575 5.746C6.7942 4.69677 8.02892 3.86572 9.44992 3.25283C10.8709 2.63994 12.3876 2.3335 13.9999 2.3335C15.6123 2.3335 17.1289 2.63994 18.5499 3.25283C19.9709 3.86572 21.2056 4.69677 22.2541 5.746C23.3025 6.79522 24.134 8.02994 24.7484 9.45016C25.3629 10.8704 25.6689 12.3871 25.6666 14.0002C25.6643 15.6133 25.3578 17.1299 24.7473 18.5502C24.1367 19.9704 23.3056 21.2051 22.2541 22.2543C21.2025 23.3036 19.9678 24.135 18.5499 24.7487C17.132 25.3623 15.6154 25.6684 13.9999 25.6668Z" fill="#2871FF"/>
</svg>
