<svg width="24" height="25" viewBox="0 0 24 25" fill="none" xmlns="http://www.w3.org/2000/svg">
<path d="M17.525 11.0454C17.7583 10.8954 17.875 10.6871 17.875 10.4204C17.875 10.1537 17.7583 9.94541 17.525 9.79541L12.65 6.67041C12.4 6.50374 12.1457 6.49108 11.887 6.63241C11.6283 6.77374 11.4993 6.99474 11.5 7.29541V13.5454C11.5 13.8454 11.6293 14.0664 11.888 14.2084C12.1467 14.3504 12.4007 14.3377 12.65 14.1704L17.525 11.0454ZM8 18.4204C7.45 18.4204 6.97933 18.2247 6.588 17.8334C6.19667 17.4421 6.00067 16.9711 6 16.4204V4.42041C6 3.87041 6.196 3.39974 6.588 3.00841C6.98 2.61708 7.45067 2.42108 8 2.42041H20C20.55 2.42041 21.021 2.61641 21.413 3.00841C21.805 3.40041 22.0007 3.87108 22 4.42041V16.4204C22 16.9704 21.8043 17.4414 21.413 17.8334C21.0217 18.2254 20.5507 18.4211 20 18.4204H8ZM8 16.4204H20V4.42041H8V16.4204ZM4 22.4204C3.45 22.4204 2.97933 22.2247 2.588 21.8334C2.19667 21.4421 2.00067 20.9711 2 20.4204V7.42041C2 7.13708 2.096 6.89974 2.288 6.70841C2.48 6.51708 2.71733 6.42108 3 6.42041C3.28267 6.41974 3.52033 6.51574 3.713 6.70841C3.90567 6.90108 4.00133 7.13841 4 7.42041V20.4204H17C17.2833 20.4204 17.521 20.5164 17.713 20.7084C17.905 20.9004 18.0007 21.1377 18 21.4204C17.9993 21.7031 17.9033 21.9407 17.712 22.1334C17.5207 22.3261 17.2833 22.4217 17 22.4204H4Z" fill="white"/>
</svg>
