<?xml version="1.0" encoding="UTF-8"?>
<svg width="24px" height="24px" viewBox="0 0 24 24" stroke-width="1.5" fill="none" xmlns="http://www.w3.org/2000/svg" color="#ffffff">
  <path d="M15 4V2M15 4V6M15 4H10.5M3 10V19C3 20.1046 3.89543 21 5 21H19C20.1046 21 21 20.1046 21 19V10H3Z" stroke="#ffffff" stroke-width="1.5" stroke-linecap="round" stroke-linejoin="round"></path>
  <path d="M3 10V6C3 4.89543 3.89543 4 5 4H7M21 10V6C21 4.89543 20.1046 4 19 4H18.5" stroke="#ffffff" stroke-width="1.5" stroke-linecap="round" stroke-linejoin="round"></path>
  <path d="M7 2V6" stroke="#ffffff" stroke-width="1.5" stroke-linecap="round" stroke-linejoin="round"></path>
  <path d="M7.5 14.5C8.32843 14.5 9 13.8284 9 13C9 12.1716 8.32843 11.5 7.5 11.5C6.67157 11.5 6 12.1716 6 13C6 13.8284 6.67157 14.5 7.5 14.5Z" fill="#ffffff" stroke="#ffffff" stroke-width="1.5" stroke-linecap="round" stroke-linejoin="round"></path>
  <path d="M16.5 14.5C17.3284 14.5 18 13.8284 18 13C18 12.1716 17.3284 11.5 16.5 11.5C15.6716 11.5 15 12.1716 15 13C15 13.8284 15.6716 14.5 16.5 14.5Z" fill="#ffffff" stroke="#ffffff" stroke-width="1.5" stroke-linecap="round" stroke-linejoin="round"></path>
  <path d="M7.5 18.5C8.32843 18.5 9 17.8284 9 17C9 16.1716 8.32843 15.5 7.5 15.5C6.67157 15.5 6 16.1716 6 17C6 17.8284 6.67157 18.5 7.5 18.5Z" fill="#ffffff" stroke="#ffffff" stroke-width="1.5" stroke-linecap="round" stroke-linejoin="round"></path>
  <path d="M16.5 18.5C17.3284 18.5 18 17.8284 18 17C18 16.1716 17.3284 15.5 16.5 15.5C15.6716 15.5 15 16.1716 15 17C15 17.8284 15.6716 18.5 16.5 18.5Z" fill="#ffffff" stroke="#ffffff" stroke-width="1.5" stroke-linecap="round" stroke-linejoin="round"></path>
</svg> 