<svg width="15" height="15" viewBox="0 0 15 15" fill="none" xmlns="http://www.w3.org/2000/svg">
<path d="M12.0502 11.3869C12.0937 11.4304 12.1283 11.4821 12.1518 11.539C12.1754 11.5959 12.1875 11.6569 12.1875 11.7185C12.1875 11.7801 12.1754 11.8411 12.1518 11.898C12.1283 11.9549 12.0937 12.0066 12.0502 12.0502C12.0066 12.0937 11.9549 12.1283 11.898 12.1518C11.8411 12.1754 11.7801 12.1875 11.7185 12.1875C11.6569 12.1875 11.5959 12.1754 11.539 12.1518C11.4821 12.1283 11.4304 12.0937 11.3869 12.0502L7.49977 8.16247L3.61266 12.0502C3.52471 12.1381 3.40541 12.1875 3.28102 12.1875C3.15663 12.1875 3.03734 12.1381 2.94938 12.0502C2.86143 11.9622 2.81201 11.8429 2.81201 11.7185C2.81201 11.5941 2.86143 11.4748 2.94938 11.3869L6.83708 7.49977L2.94938 3.61266C2.86143 3.52471 2.81201 3.40541 2.81201 3.28102C2.81201 3.15663 2.86143 3.03734 2.94938 2.94938C3.03734 2.86143 3.15663 2.81201 3.28102 2.81201C3.40541 2.81201 3.52471 2.86143 3.61266 2.94938L7.49977 6.83708L11.3869 2.94938C11.4748 2.86143 11.5941 2.81201 11.7185 2.81201C11.8429 2.81201 11.9622 2.86143 12.0502 2.94938C12.1381 3.03734 12.1875 3.15663 12.1875 3.28102C12.1875 3.40541 12.1381 3.52471 12.0502 3.61266L8.16247 7.49977L12.0502 11.3869Z" fill="white"/>
</svg>
