<svg width="16" height="17" viewBox="0 0 18 18" fill="none" xmlns="http://www.w3.org/2000/svg">
<path d="M1.125 5.0625C1.125 4.31658 1.42132 3.60121 1.94876 3.07376C2.47621 2.54632 3.19158 2.25 3.9375 2.25H14.0625C14.8084 2.25 15.5238 2.54632 16.0512 3.07376C16.5787 3.60121 16.875 4.31658 16.875 5.0625V10.6875C16.875 11.0568 16.8023 11.4226 16.6609 11.7638C16.5196 12.105 16.3124 12.4151 16.0512 12.6762C15.7901 12.9374 15.48 13.1446 15.1388 13.2859C14.7976 13.4273 14.4318 13.5 14.0625 13.5H9.774L6.32812 16.515C6.16868 16.6544 5.97246 16.7449 5.76293 16.7757C5.55341 16.8065 5.33944 16.7764 5.14661 16.6888C4.95378 16.6012 4.79026 16.46 4.67559 16.2819C4.56092 16.1038 4.49996 15.8965 4.5 15.6848V13.5H3.9375C3.19158 13.5 2.47621 13.2037 1.94876 12.6762C1.42132 12.1488 1.125 11.4334 1.125 10.6875V5.0625ZM3.9375 3.375C3.48995 3.375 3.06072 3.55279 2.74426 3.86926C2.42779 4.18572 2.25 4.61495 2.25 5.0625V10.6875C2.25 11.1351 2.42779 11.5643 2.74426 11.8807C3.06072 12.1972 3.48995 12.375 3.9375 12.375H5.625V15.6352L9.351 12.375H14.0625C14.5101 12.375 14.9393 12.1972 15.2557 11.8807C15.5722 11.5643 15.75 11.1351 15.75 10.6875V5.0625C15.75 4.61495 15.5722 4.18572 15.2557 3.86926C14.9393 3.55279 14.5101 3.375 14.0625 3.375H3.9375Z" fill="white"/>
</svg>
