<svg width="15" height="16" viewBox="0 0 15 16" fill="none" xmlns="http://www.w3.org/2000/svg">
<path d="M12.1856 5.49312L7.49996 10.0606L2.81434 5.49312C2.73063 5.41134 2.61824 5.36556 2.50121 5.36556C2.38419 5.36556 2.2718 5.41134 2.18809 5.49312C2.14755 5.53284 2.11535 5.58024 2.09337 5.63256C2.07138 5.68488 2.06006 5.74106 2.06006 5.79781C2.06006 5.85456 2.07138 5.91074 2.09337 5.96306C2.11535 6.01538 2.14755 6.06278 2.18809 6.1025L7.17278 10.9625C7.26031 11.0478 7.37772 11.0956 7.49996 11.0956C7.62221 11.0956 7.73961 11.0478 7.82715 10.9625L12.8118 6.10344C12.8527 6.06369 12.8851 6.01617 12.9073 5.96368C12.9294 5.91118 12.9408 5.85479 12.9408 5.79781C12.9408 5.74083 12.9294 5.68444 12.9073 5.63194C12.8851 5.57945 12.8527 5.53193 12.8118 5.49218C12.7281 5.41041 12.6157 5.36462 12.4987 5.36462C12.3817 5.36462 12.2693 5.41041 12.1856 5.49218V5.49312Z" fill="white"/>
</svg>
