<svg width="14" height="14" viewBox="0 0 14 14" fill="none" xmlns="http://www.w3.org/2000/svg">
<mask id="mask0_814_4061" style="mask-type:alpha" maskUnits="userSpaceOnUse" x="0" y="0" width="13" height="13">
<path d="M12.4468 6.10139L10.0562 8.16423L10.7845 11.2492C10.8247 11.4167 10.8144 11.5923 10.7548 11.7539C10.6952 11.9155 10.5891 12.0558 10.4498 12.1571C10.3105 12.2584 10.1444 12.3161 9.97228 12.323C9.80019 12.3299 9.62992 12.2857 9.48297 12.1959L6.80016 10.5448L4.11576 12.1959C3.96883 12.2852 3.79876 12.329 3.62697 12.3219C3.45519 12.3147 3.28936 12.2569 3.15037 12.1556C3.01138 12.0544 2.90545 11.9144 2.84591 11.7531C2.78637 11.5918 2.77589 11.4164 2.81579 11.2492L3.54679 8.16423L1.15616 6.10139C1.02616 5.98903 0.932147 5.84087 0.885853 5.6754C0.839558 5.50993 0.843038 5.33449 0.895858 5.17099C0.948677 5.00749 1.0485 4.86317 1.18285 4.75606C1.3172 4.64895 1.48013 4.58379 1.65129 4.56873L4.78566 4.31586L5.99479 1.38973C6.06023 1.23026 6.17162 1.09385 6.3148 0.997848C6.45797 0.901846 6.62645 0.850586 6.79883 0.850586C6.97121 0.850586 7.1397 0.901846 7.28287 0.997848C7.42604 1.09385 7.53743 1.23026 7.60288 1.38973L8.81147 4.31586L11.9458 4.56873C12.1173 4.58323 12.2808 4.64803 12.4156 4.75499C12.5504 4.86195 12.6507 5.00633 12.7039 5.17003C12.757 5.33373 12.7607 5.50947 12.7144 5.67524C12.6681 5.84101 12.5739 5.98944 12.4436 6.10192L12.4468 6.10139Z" fill="#2E2E2E"/>
</mask>
<g mask="url(#mask0_814_4061)">
<rect y="-1" width="6.8" height="14" fill="#2871FF"/>
</g>
</svg>
