<svg width="24" height="24" viewBox="0 0 24 24" fill="none" xmlns="http://www.w3.org/2000/svg">
  <path d="M20.84 4.61C20.3296 4.09986 19.7244 3.69343 19.0575 3.41726C18.3906 3.14109 17.6755 2.99946 16.9536 2.99946C16.2316 2.99946 15.5166 3.14109 14.8496 3.41726C14.1827 3.69343 13.5776 4.09986 13.0671 4.61L12.0001 5.69L10.9331 4.61C9.9016 3.5784 8.50903 2.99926 7.0471 2.99926C5.58516 2.99926 4.19259 3.5784 3.16107 4.61C2.12954 5.64159 1.55035 7.03418 1.55035 8.49615C1.55035 9.95813 2.12954 11.3507 3.16107 12.3823L4.22807 13.4613L12.0001 21.2323L19.7721 13.4613L20.8391 12.3823C21.3493 11.8719 21.7558 11.2667 22.032 10.5998C22.3082 9.93285 22.4498 9.21779 22.4498 8.49585C22.4498 7.7739 22.3082 7.05883 22.032 6.39188C21.7558 5.72493 21.3493 5.11973 20.8391 4.60931L20.84 4.61Z" stroke="white" stroke-width="2" stroke-linecap="round" stroke-linejoin="round"/>
</svg> 