<svg width="18" height="18" viewBox="0 0 18 18" fill="none" xmlns="http://www.w3.org/2000/svg">
<path d="M8.98685 13.5786L8.91857 13.6469L8.84346 13.5786C5.60004 10.6356 3.45598 8.68958 3.45598 6.71622C3.45598 5.35057 4.48021 4.32634 5.84586 4.32634C6.89741 4.32634 7.92164 5.00916 8.28354 5.9378H9.55359C9.91549 5.00916 10.9397 4.32634 11.9913 4.32634C13.3569 4.32634 14.3812 5.35057 14.3812 6.71622C14.3812 8.68958 12.2371 10.6356 8.98685 13.5786ZM11.9913 2.96069C10.8032 2.96069 9.66284 3.51378 8.91857 4.38097C8.17429 3.51378 7.03397 2.96069 5.84586 2.96069C3.74276 2.96069 2.09033 4.6063 2.09033 6.71622C2.09033 9.29046 4.41193 11.4004 7.92847 14.5892L8.91857 15.4905L9.90866 14.5892C13.4252 11.4004 15.7468 9.29046 15.7468 6.71622C15.7468 4.6063 14.0944 2.96069 11.9913 2.96069Z" fill="white"/>
</svg>
