<svg width="14" height="14" viewBox="0 0 14 14" fill="none" xmlns="http://www.w3.org/2000/svg">
<path d="M10.7681 6.88808L10.7702 6.88772L9.72954 7.78568L9.49986 7.98387L9.56957 8.27912L10.2979 11.3641L10.2983 11.3659C10.3155 11.4372 10.3111 11.5121 10.2857 11.5809C10.2603 11.6498 10.2151 11.7096 10.1557 11.7527C10.0964 11.7959 10.0256 11.8205 9.95223 11.8234C9.87911 11.8264 9.80676 11.8076 9.74427 11.7696C9.74409 11.7695 9.74391 11.7694 9.74373 11.7693L7.06223 10.1189L6.80024 9.9577L6.53821 10.1189L3.85607 11.7686C3.85578 11.7688 3.85549 11.769 3.8552 11.7691C3.79279 11.8068 3.72066 11.8253 3.6478 11.8223C3.5746 11.8192 3.50393 11.7946 3.44471 11.7515C3.38549 11.7083 3.34035 11.6486 3.31498 11.5799C3.28961 11.5112 3.28514 11.4365 3.30214 11.3652L3.30231 11.3645L4.03331 8.27952L4.10333 7.98405L3.87344 7.78568L1.48311 5.72309C1.4831 5.72308 1.48308 5.72307 1.48307 5.72306C1.42742 5.67495 1.38718 5.61152 1.36736 5.54069C1.34754 5.46983 1.34903 5.39471 1.37165 5.3247C1.39426 5.25468 1.43701 5.19289 1.49454 5.14702C1.55169 5.10146 1.62092 5.07362 1.69369 5.06693L4.82587 4.81424L5.1309 4.78963L5.24776 4.5068L6.45689 1.58068L6.45735 1.57957C6.48514 1.51184 6.53245 1.4539 6.59326 1.41313C6.65407 1.37236 6.72562 1.35059 6.79883 1.35059C6.87204 1.35059 6.9436 1.37236 7.00441 1.41313C7.06522 1.4539 7.11252 1.51184 7.14032 1.57957L7.14075 1.58061L8.34934 4.50673L8.46619 4.78962L8.77127 4.81424L11.9037 5.06695C11.904 5.06697 11.9042 5.067 11.9045 5.06702C11.9776 5.07336 12.0473 5.10107 12.1049 5.14671C12.1626 5.19251 12.2055 5.25433 12.2283 5.32443C12.2511 5.39453 12.2526 5.46978 12.2328 5.54076C12.213 5.61175 12.1726 5.6753 12.1169 5.72347L10.7681 6.88808Z" stroke="#2E2E2E"/>
</svg>
