<svg width="18" height="18" viewBox="0 0 18 18" fill="none" xmlns="http://www.w3.org/2000/svg">
<path d="M4.05852 7.74316C3.30741 7.74316 2.69287 8.35771 2.69287 9.10881C2.69287 9.85992 3.30741 10.4745 4.05852 10.4745C4.80962 10.4745 5.42417 9.85992 5.42417 9.10881C5.42417 8.35771 4.80962 7.74316 4.05852 7.74316ZM13.618 7.74316C12.8669 7.74316 12.2524 8.35771 12.2524 9.10881C12.2524 9.85992 12.8669 10.4745 13.618 10.4745C14.3692 10.4745 14.9837 9.85992 14.9837 9.10881C14.9837 8.35771 14.3692 7.74316 13.618 7.74316ZM8.83828 7.74316C8.08718 7.74316 7.47264 8.35771 7.47264 9.10881C7.47264 9.85992 8.08718 10.4745 8.83828 10.4745C9.58939 10.4745 10.2039 9.85992 10.2039 9.10881C10.2039 8.35771 9.58939 7.74316 8.83828 7.74316Z" fill="white"/>
</svg>
