<svg width="18" height="18" viewBox="0 0 18 18" fill="none" xmlns="http://www.w3.org/2000/svg">
<path d="M7.633 13.2042C8.20202 13.2042 8.68568 13.0051 9.084 12.6068C9.48231 12.2084 9.68147 11.7248 9.68147 11.1558V6.37599H11.0471C11.2406 6.37599 11.4029 6.31044 11.534 6.17934C11.6651 6.04824 11.7304 5.88618 11.7299 5.69317C11.7295 5.50016 11.6639 5.3381 11.5333 5.207C11.4026 5.0759 11.2406 5.01035 11.0471 5.01035H9.34006C9.14659 5.01035 8.98453 5.0759 8.85389 5.207C8.72324 5.3381 8.65769 5.50016 8.65723 5.69317V9.38042C8.49791 9.28937 8.33289 9.22109 8.16219 9.17557C7.99148 9.13005 7.81508 9.10729 7.633 9.10729C7.06398 9.10729 6.58031 9.30644 6.182 9.70476C5.78368 10.1031 5.58453 10.5867 5.58453 11.1558C5.58453 11.7248 5.78368 12.2084 6.182 12.6068C6.58031 13.0051 7.06398 13.2042 7.633 13.2042ZM8.99864 15.9355C8.05407 15.9355 7.1664 15.7562 6.33563 15.3975C5.50487 15.0387 4.78221 14.5523 4.16767 13.9383C3.55313 13.3242 3.06673 12.6015 2.70848 11.7703C2.35022 10.9391 2.17087 10.0514 2.17041 9.10729C2.16996 8.16317 2.34931 7.2755 2.70848 6.44428C3.06764 5.61305 3.55404 4.8904 4.16767 4.27631C4.7813 3.66223 5.50396 3.17583 6.33563 2.81712C7.16731 2.45841 8.05498 2.27905 8.99864 2.27905C9.94231 2.27905 10.83 2.45841 11.6617 2.81712C12.4933 3.17583 13.216 3.66223 13.8296 4.27631C14.4433 4.8904 14.9299 5.61305 15.2895 6.44428C15.6491 7.2755 15.8282 8.16317 15.8269 9.10729C15.8255 10.0514 15.6462 10.9391 15.2888 11.7703C14.9315 12.6015 14.4451 13.3242 13.8296 13.9383C13.2142 14.5523 12.4915 15.039 11.6617 15.3981C10.8318 15.7573 9.94413 15.9364 8.99864 15.9355ZM8.99864 14.5699C10.5236 14.5699 11.8153 14.0407 12.8737 12.9823C13.932 11.9239 14.4612 10.6323 14.4612 9.10729C14.4612 7.58231 13.932 6.29064 12.8737 5.23226C11.8153 4.17389 10.5236 3.6447 8.99864 3.6447C7.47367 3.6447 6.182 4.17389 5.12362 5.23226C4.06525 6.29064 3.53606 7.58231 3.53606 9.10729C3.53606 10.6323 4.06525 11.9239 5.12362 12.9823C6.182 14.0407 7.47367 14.5699 8.99864 14.5699Z" fill="white"/>
</svg>
