<svg width="399" height="101" viewBox="0 0 399 101" fill="none" xmlns="http://www.w3.org/2000/svg">
<g clip-path="url(#clip0_1372_4355)">
<g filter="url(#filter0_d_1372_4355)">
<path d="M21.5295 1.21515H92.9583C101.81 1.21525 108.982 8.35966 108.983 17.1683V83.8314C108.983 92.6401 101.81 99.7844 92.9583 99.7845H21.5295C12.6775 99.7843 5.50515 92.6401 5.50513 83.8314V17.1683C5.50535 8.35969 12.6776 1.2153 21.5295 1.21515Z" fill="#2871FF" stroke="#568FFF"/>
<path d="M40.9326 40.0366V32.763H72.389V40.0366H61.104V69.8195H52.2359V40.0366H40.9326Z" fill="white"/>
<g filter="url(#filter1_d_1372_4355)">
<path d="M141.819 33.9352V22.6307H190.706V33.9352H173.168V80.2222H159.385V33.9352H141.819ZM193.029 80.2222V37.0287H206.444V44.9024H206.896C207.687 42.053 208.977 39.9344 210.765 38.5472C212.554 37.1411 214.635 36.4381 217.007 36.4381C217.647 36.4381 218.306 36.4851 218.984 36.5787C219.662 36.6536 220.293 36.7755 220.876 36.9443V48.8956C220.217 48.6706 219.351 48.4926 218.278 48.3612C217.224 48.2301 216.282 48.1644 215.454 48.1644C213.816 48.1644 212.338 48.53 211.02 49.2612C209.72 49.9736 208.694 50.9765 207.941 52.2703C207.207 53.5451 206.84 55.0448 206.84 56.7693V80.2222H193.029ZM237.102 80.9534C234.334 80.9534 231.877 80.4942 229.73 79.5755C227.603 78.638 225.918 77.2322 224.675 75.3573C223.451 73.464 222.839 71.0925 222.839 68.2427C222.839 65.8432 223.263 63.8185 224.11 62.1687C224.957 60.5188 226.125 59.1786 227.612 58.1472C229.1 57.1162 230.813 56.3383 232.752 55.8135C234.691 55.2695 236.763 54.9043 238.965 54.7167C241.432 54.4917 243.419 54.2572 244.925 54.0135C246.431 53.751 247.523 53.3854 248.201 52.917C248.897 52.4296 249.246 51.7451 249.246 50.8641V50.7235C249.246 49.2799 248.747 48.1644 247.749 47.3771C246.751 46.5898 245.405 46.1959 243.71 46.1959C241.884 46.1959 240.415 46.5898 239.305 47.3771C238.194 48.1644 237.488 49.2517 237.186 50.6391L224.449 50.1891C224.825 47.5646 225.795 45.221 227.358 43.1589C228.94 41.0781 231.105 39.4469 233.854 38.266C236.622 37.0662 239.945 36.4661 243.823 36.4661C246.591 36.4661 249.142 36.7942 251.477 37.4505C253.812 38.0877 255.845 39.0252 257.577 40.2625C259.31 41.4811 260.646 42.9809 261.588 44.7618C262.548 46.5428 263.028 48.577 263.028 50.8641V80.2222H250.037V74.2044H249.698C248.926 75.6667 247.937 76.904 246.732 77.9164C245.546 78.9287 244.143 79.6878 242.524 80.194C240.924 80.7005 239.116 80.9534 237.102 80.9534ZM241.366 71.9547C242.854 71.9547 244.191 71.6548 245.377 71.055C246.582 70.4549 247.542 69.6301 248.257 68.5803C248.973 67.5115 249.331 66.2742 249.331 64.8683V60.7625C248.935 60.9688 248.455 61.1563 247.89 61.3251C247.344 61.4937 246.742 61.653 246.083 61.8031C245.424 61.9532 244.746 62.0842 244.049 62.1969C243.353 62.3092 242.684 62.4124 242.044 62.506C240.745 62.7123 239.634 63.0309 238.711 63.4622C237.808 63.8934 237.111 64.4558 236.622 65.1495C236.151 65.8245 235.915 66.6306 235.915 67.568C235.915 68.9926 236.424 70.0801 237.44 70.83C238.476 71.5799 239.785 71.9547 241.366 71.9547ZM291.723 81.0378C287.147 81.0378 283.222 80.1004 279.946 78.2258C276.688 76.3509 274.184 73.7452 272.433 70.4079C270.682 67.0523 269.806 63.1718 269.806 58.7661C269.806 54.3416 270.682 50.4611 272.433 47.1239C274.203 43.7682 276.717 41.153 279.974 39.2784C283.25 37.4035 287.157 36.4661 291.694 36.4661C295.705 36.4661 299.198 37.188 302.171 38.6316C305.165 40.0749 307.499 42.1183 309.177 44.7618C310.872 47.3866 311.765 50.4703 311.86 54.0135H298.953C298.69 51.8015 297.935 50.0673 296.693 48.8112C295.469 47.5551 293.869 46.9271 291.892 46.9271C290.291 46.9271 288.889 47.3771 287.684 48.2771C286.479 49.1581 285.537 50.4703 284.86 52.2138C284.201 53.9386 283.871 56.0759 283.871 58.6255C283.871 61.175 284.201 63.3311 284.86 65.0933C285.537 66.8368 286.479 68.1583 287.684 69.0583C288.889 69.9395 290.291 70.38 291.892 70.38C293.172 70.38 294.302 70.1081 295.281 69.5644C296.279 69.0208 297.098 68.224 297.738 67.1742C298.38 66.1057 298.783 64.8122 298.953 63.2936H311.86C311.729 66.8556 310.834 69.9675 309.177 72.6297C307.538 75.2916 305.231 77.3632 302.257 78.8443C299.302 80.3066 295.789 81.0378 291.723 81.0378ZM331.383 68.8894L331.44 52.495H333.359L345.559 37.0287H361.207L343.075 59.1878H339.431L331.383 68.8894ZM318.926 80.2222V22.6307H332.738V80.2222H318.926ZM345.869 80.2222L334.517 62.281L343.61 52.5232L361.828 80.2222H345.869ZM366.15 80.2222V37.0287H379.565V44.9024H380.016C380.807 42.053 382.096 39.9344 383.884 38.5472C385.672 37.1411 387.753 36.4381 390.126 36.4381C390.768 36.4381 391.425 36.4851 392.102 36.5787C392.78 36.6536 393.413 36.7755 393.995 36.9443V48.8956C393.338 48.6706 392.469 48.4926 391.398 48.3612C390.344 48.2301 389.401 48.1644 388.574 48.1644C386.935 48.1644 385.457 48.53 384.138 49.2612C382.84 49.9736 381.813 50.9765 381.06 52.2703C380.326 53.5451 379.959 55.0448 379.959 56.7693V80.2222H366.15Z" fill="url(#paint0_linear_1372_4355)"/>
</g>
</g>
</g>
<defs>
<filter id="filter0_d_1372_4355" x="4.03981" y="0.715148" width="390.92" height="101.5" filterUnits="userSpaceOnUse" color-interpolation-filters="sRGB">
<feFlood flood-opacity="0" result="BackgroundImageFix"/>
<feColorMatrix in="SourceAlpha" type="matrix" values="0 0 0 0 0 0 0 0 0 0 0 0 0 0 0 0 0 0 127 0" result="hardAlpha"/>
<feOffset dy="0.965319"/>
<feGaussianBlur stdDeviation="0.48266"/>
<feComposite in2="hardAlpha" operator="out"/>
<feColorMatrix type="matrix" values="0 0 0 0 0 0 0 0 0 0 0 0 0 0 0 0 0 0 0.25 0"/>
<feBlend mode="normal" in2="BackgroundImageFix" result="effect1_dropShadow_1372_4355"/>
<feBlend mode="normal" in="SourceGraphic" in2="effect1_dropShadow_1372_4355" result="shape"/>
</filter>
<filter id="filter1_d_1372_4355" x="140.853" y="22.6307" width="254.107" height="60.3377" filterUnits="userSpaceOnUse" color-interpolation-filters="sRGB">
<feFlood flood-opacity="0" result="BackgroundImageFix"/>
<feColorMatrix in="SourceAlpha" type="matrix" values="0 0 0 0 0 0 0 0 0 0 0 0 0 0 0 0 0 0 127 0" result="hardAlpha"/>
<feOffset dy="0.965319"/>
<feGaussianBlur stdDeviation="0.48266"/>
<feComposite in2="hardAlpha" operator="out"/>
<feColorMatrix type="matrix" values="0 0 0 0 0 0 0 0 0 0 0 0 0 0 0 0 0 0 0.25 0"/>
<feBlend mode="normal" in2="BackgroundImageFix" result="effect1_dropShadow_1372_4355"/>
<feBlend mode="normal" in="SourceGraphic" in2="effect1_dropShadow_1372_4355" result="shape"/>
</filter>
<linearGradient id="paint0_linear_1372_4355" x1="277.5" y1="53" x2="276" y2="97.5" gradientUnits="userSpaceOnUse">
<stop stop-color="white"/>
<stop offset="1" stop-color="#999999"/>
</linearGradient>
<clipPath id="clip0_1372_4355">
<rect width="398.99" height="99.5697" fill="white" transform="translate(0.00512695 0.715149)"/>
</clipPath>
</defs>
</svg>
