<svg width="19" height="19" viewBox="0 0 19 19" fill="none" xmlns="http://www.w3.org/2000/svg">
<path d="M17.4326 8.83822C17.3273 8.62753 17.1724 8.44553 16.9814 8.30781L15.9284 7.51614C15.8737 7.47837 15.8343 7.42217 15.8176 7.35781C15.794 7.29395 15.794 7.22374 15.8176 7.15989L16.253 5.86947C16.3229 5.63869 16.3391 5.39499 16.3005 5.15697C16.264 4.91457 16.1659 4.68559 16.0155 4.49197C15.8707 4.29831 15.6803 4.14332 15.4614 4.04072C15.2519 3.94014 15.0205 3.89386 14.7884 3.90614H13.6009C13.5307 3.90529 13.4626 3.88168 13.407 3.83885C13.3513 3.79603 13.311 3.7363 13.2922 3.66864L12.9518 2.48114C12.8861 2.24022 12.7609 2.0197 12.5876 1.83989C12.4148 1.6643 12.2033 1.53147 11.9701 1.45197C11.7343 1.37963 11.4849 1.36337 11.2418 1.40447C11.0006 1.45157 10.7749 1.55764 10.5847 1.71322L9.68218 2.42572C9.63216 2.47081 9.56744 2.49614 9.5001 2.49697C9.4393 2.50278 9.37825 2.4889 9.32594 2.45739L8.43135 1.74489C8.24771 1.59481 8.03037 1.49157 7.79802 1.44406C7.5691 1.38864 7.33027 1.38864 7.10135 1.44406C6.87179 1.50783 6.66033 1.62441 6.48385 1.78447C6.30329 1.95939 6.16518 2.17333 6.0801 2.40989L5.73969 3.6053C5.7224 3.67578 5.68023 3.73764 5.62094 3.77947C5.55835 3.82236 5.48272 3.84196 5.40719 3.83489H4.28302C4.04014 3.82537 3.79852 3.87424 3.57844 3.97739C3.35512 4.07653 3.16142 4.23204 3.01635 4.42864C2.87063 4.62199 2.77295 4.84721 2.73135 5.08572C2.69177 5.31768 2.7076 5.55676 2.77885 5.78239L3.16677 7.11951C3.18718 7.18308 3.18749 7.2514 3.16765 7.31515C3.14782 7.37891 3.10881 7.43499 3.05594 7.47576L2.00302 8.26743C1.81144 8.40993 1.65469 8.5936 1.54385 8.80576C1.43985 9.01625 1.38574 9.24786 1.38574 9.48264C1.38574 9.71741 1.43985 9.94903 1.54385 10.1595C1.65434 10.3713 1.81131 10.5553 2.00302 10.6978L3.05594 11.4895C3.10881 11.5303 3.14782 11.5864 3.16765 11.6501C3.18749 11.7139 3.18718 11.7822 3.16677 11.8458L2.73135 13.1362C2.6576 13.3688 2.63864 13.6154 2.67594 13.8566C2.71552 14.0925 2.81369 14.3158 2.96094 14.5058C3.10581 14.7037 3.29977 14.862 3.52302 14.9649C3.73281 15.0647 3.96398 15.1106 4.19594 15.0995H5.37552C5.44692 15.0964 5.51708 15.1189 5.57344 15.1628C5.63034 15.202 5.67002 15.2615 5.68427 15.3291L6.02469 16.5245C6.09504 16.7611 6.21975 16.978 6.38885 17.1578C6.64703 17.4267 6.99628 17.5896 7.36821 17.6145C7.74015 17.6393 8.10798 17.5245 8.39969 17.2924L9.3101 16.572C9.36502 16.5277 9.43348 16.5035 9.50406 16.5035C9.57465 16.5035 9.6431 16.5277 9.69802 16.572L10.5926 17.2845C10.7826 17.4444 11.0122 17.5513 11.2576 17.5933C11.3471 17.6012 11.4373 17.6012 11.5268 17.5933C11.6826 17.5934 11.8375 17.5694 11.9859 17.522C12.2209 17.4481 12.4338 17.3167 12.6052 17.1397C12.7766 16.9628 12.9011 16.7459 12.9676 16.5087L13.3159 15.3053C13.3302 15.2378 13.3699 15.1782 13.4268 15.1391C13.488 15.0928 13.5639 15.0703 13.6405 15.0758H14.7726C15.0147 15.0854 15.2557 15.0394 15.4772 14.9412C15.6955 14.837 15.8856 14.682 16.0316 14.4891C16.1776 14.2963 16.2753 14.0712 16.3164 13.8328C16.3574 13.5892 16.3383 13.3392 16.2609 13.1045L15.8334 11.822C15.8098 11.7582 15.8098 11.688 15.8334 11.6241C15.8502 11.5597 15.8895 11.5035 15.9443 11.4658L16.9972 10.6741C17.1886 10.5335 17.3434 10.3488 17.4484 10.1358C17.559 9.92596 17.6161 9.6921 17.6147 9.45493C17.5997 9.23828 17.5376 9.02832 17.4326 8.83822ZM13.1259 8.23576L9.62677 11.7349C9.49117 11.8675 9.33299 11.9747 9.15968 12.0516C8.98393 12.1228 8.79552 12.1608 8.60552 12.1624C8.41182 12.1635 8.22015 12.123 8.04344 12.0437C7.86599 11.9701 7.70463 11.8625 7.56844 11.727L5.8426 9.99326C5.71291 9.84182 5.64513 9.64701 5.65283 9.44776C5.66053 9.24852 5.74312 9.05952 5.88411 8.91853C6.02511 8.77754 6.21411 8.69494 6.41335 8.68724C6.6126 8.67955 6.8074 8.74732 6.95885 8.87701L8.60552 10.5237L12.0097 7.1116C12.158 6.96415 12.3587 6.88139 12.5678 6.88139C12.777 6.88139 12.9776 6.96415 13.1259 7.1116C13.2052 7.18553 13.2685 7.27499 13.3117 7.37441C13.355 7.47383 13.3773 7.58109 13.3773 7.68951C13.3773 7.79793 13.355 7.90519 13.3117 8.00462C13.2685 8.10404 13.2052 8.1935 13.1259 8.26743V8.23576Z" fill="#2871FF"/>
</svg>
