<svg width="13" height="14" viewBox="0 0 13 14" fill="none" xmlns="http://www.w3.org/2000/svg">
<rect x="0.495805" y="1.11397" width="12.0084" height="12.0084" rx="6.0042" stroke="#ffffff" stroke-width="0.99161"/>
<path opacity="0.79" d="M7.08057 4.27429L6.97881 8.01605H6.0238L5.91943 4.27429H7.08057ZM6.5013 9.68601C6.32909 9.68601 6.18123 9.62512 6.05772 9.50335C5.93421 9.37985 5.87333 9.23199 5.87507 9.05977C5.87333 8.8893 5.93421 8.74317 6.05772 8.62141C6.18123 8.49964 6.32909 8.43875 6.5013 8.43875C6.66656 8.43875 6.81181 8.49964 6.93706 8.62141C7.06231 8.74317 7.1258 8.8893 7.12754 9.05977C7.1258 9.17458 7.09536 9.27982 7.03621 9.3755C6.97881 9.46943 6.90314 9.5451 6.8092 9.60251C6.71527 9.65817 6.61264 9.68601 6.5013 9.68601Z" fill="#ffffff"/>
</svg>
