<svg width="15" height="15" viewBox="0 0 15 15" fill="none" xmlns="http://www.w3.org/2000/svg">
<path d="M13.75 3.61328C13.2891 3.81641 12.8008 3.95312 12.293 4.01562C12.8164 3.70312 13.2188 3.21484 13.4102 2.61328C12.9219 2.9082 12.3789 3.12891 11.8086 3.25781C11.3477 2.76172 10.6992 2.45703 10 2.45703C8.63281 2.45703 7.53516 3.56641 7.53516 4.92188C7.53516 5.11719 7.55469 5.30469 7.60156 5.48437C5.54297 5.38281 3.72266 4.39844 2.49219 2.89843C2.28125 3.26172 2.1582 3.70312 2.1582 4.17578C2.1582 5.06641 2.60156 5.86328 3.29297 6.3086C2.8828 6.30078 2.48438 6.18359 2.14062 5.99219V6.02734C2.14062 7.23047 3.0039 8.23047 4.15625 8.46094C3.94922 8.51562 3.72656 8.54688 3.49609 8.54688C3.33594 8.54688 3.17578 8.53125 3.02344 8.5C3.34375 9.48438 4.26562 10.1953 5.35547 10.2148C4.5 10.8711 3.42188 11.2578 2.25391 11.2578C2.05859 11.2578 1.86719 11.2461 1.67578 11.2227C2.77734 11.9219 4.08594 12.3203 5.49219 12.3203C9.99219 12.3203 12.4805 8.59375 12.4805 5.35156C12.4805 5.23828 12.4805 5.125 12.4727 5.01172C12.9688 4.65625 13.4102 4.20703 13.75 3.61328Z" fill="#E0E0E0"/>
</svg> 